<?xml version="1.0" encoding="UTF-8"?>
<!-- Do not edit this file with editors other than diagrams.net -->
<!DOCTYPE svg PUBLIC "-//W3C//DTD SVG 1.1//EN" "http://www.w3.org/Graphics/SVG/1.1/DTD/svg11.dtd">
<svg xmlns="http://www.w3.org/2000/svg" xmlns:xlink="http://www.w3.org/1999/xlink" version="1.1" width="101px"
    height="15px" viewBox="-0.5 -0.5 101 15">
    <g>
        <rect x="0" y="0" width="100" height="14" fill="none" stroke="none" pointer-events="all" />
        <path
            d="M 0 9.02 L 18 9.02 C 18.26 5.35 20.76 2.2 24.29 1.1 C 27.83 0 31.68 1.17 34 4.05 C 35.79 6.29 36.52 9.19 36 12.01 C 36 13.11 35.1 14 34 14 C 32.9 14 32 13.11 32 12.01 C 31.48 9.19 32.21 6.29 34 4.05 C 36.08 1.66 38.97 0.3 42 0.3 C 45.03 0.3 47.92 1.66 50 4.05 C 51.79 6.29 52.52 9.19 52 12.01 C 52 13.11 51.1 14 50 14 C 48.9 14 48 13.11 48 12.01 C 47.48 9.19 48.21 6.29 50 4.05 C 52.08 1.66 54.97 0.3 58 0.3 C 61.03 0.3 63.92 1.66 66 4.05 C 67.79 6.29 68.52 9.19 68 12.01 C 68 13.11 67.1 14 66 14 C 64.9 14 64 13.11 64 12.01 C 63.48 9.19 64.21 6.29 66 4.05 C 68.32 1.17 72.17 0 75.71 1.1 C 79.24 2.2 81.74 5.35 82 9.02 L 100 9.02"
            fill="none" stroke="rgb(0, 0, 0)" stroke-linejoin="round" stroke-miterlimit="10" pointer-events="all" />
    </g>
</svg>