<?xml version="1.0" encoding="UTF-8" ?>
<!DOCTYPE svg PUBLIC "-//W3C//DTD SVG 1.1//EN" "http://www.w3.org/Graphics/SVG/1.1/DTD/svg11.dtd">
<svg width="298pt" height="268pt" viewBox="0 0 298 268" version="1.1" xmlns="http://www.w3.org/2000/svg">
<path fill="#ffffff" opacity="1.00" d=" M 0.00 0.00 L 298.00 0.00 L 298.00 268.00 L 0.00 268.00 L 0.00 0.00 M 119.35 14.31 C 112.48 22.62 107.55 32.35 100.54 40.55 C 95.14 46.10 88.05 49.46 80.96 52.30 C 84.23 48.14 87.90 44.26 90.68 39.75 C 95.37 30.58 98.51 20.69 100.28 10.55 C 90.12 11.67 80.94 16.46 72.01 21.06 C 64.48 24.67 60.17 32.95 58.98 40.94 C 56.43 54.31 55.26 69.06 45.34 79.43 C 45.83 62.88 47.35 46.04 43.88 29.71 C 34.34 32.92 25.04 37.71 18.02 45.04 C 12.66 50.91 13.01 59.54 15.39 66.64 C 21.63 80.37 38.01 86.78 42.45 101.62 C 42.90 110.16 39.14 118.48 39.51 127.10 C 31.38 110.58 18.82 96.88 6.16 83.73 C 6.52 99.26 4.17 115.21 7.75 130.46 C 13.47 147.58 32.60 154.87 40.02 170.80 C 40.25 179.54 39.17 188.34 39.68 197.12 C 31.00 183.38 19.41 171.76 6.11 162.47 C 6.02 173.85 5.94 185.32 8.03 196.56 C 9.99 208.29 12.52 221.65 23.09 228.86 C 34.30 237.11 47.33 242.55 60.34 247.29 C 57.24 235.94 53.43 224.76 48.87 213.92 C 58.34 201.89 72.17 191.38 74.22 175.23 C 76.88 163.29 77.25 151.06 77.95 138.90 C 65.64 147.12 54.65 157.10 44.93 168.24 C 45.56 160.38 44.03 151.58 48.48 144.55 C 56.31 132.35 68.20 123.43 76.40 111.52 C 82.22 100.42 82.50 87.67 84.98 75.63 C 71.01 81.23 58.03 89.07 46.74 99.06 C 46.98 90.86 47.78 81.87 53.35 75.35 C 61.94 65.47 74.13 59.76 86.13 55.13 C 101.04 49.35 117.18 47.36 131.80 40.79 C 145.61 32.97 155.75 19.53 161.72 5.02 C 147.52 5.45 130.74 4.02 119.35 14.31 M 192.71 7.82 C 186.49 15.62 179.78 23.23 175.30 32.21 C 172.81 37.04 172.43 43.10 175.05 47.96 C 184.33 63.31 198.28 75.59 206.42 91.61 C 208.25 109.16 201.44 126.12 198.56 143.25 C 193.59 126.69 189.32 109.90 185.93 92.94 C 183.82 84.08 181.16 75.29 180.51 66.15 C 167.68 65.79 154.76 64.03 141.98 65.97 C 135.02 67.33 129.29 71.96 126.41 78.46 C 118.57 78.45 110.73 79.95 104.56 84.98 C 105.02 92.97 105.83 100.96 108.14 108.64 C 114.16 104.42 121.71 104.73 128.73 105.11 C 129.22 125.73 128.98 146.35 128.98 166.97 C 117.35 166.99 105.72 166.99 94.10 167.09 C 83.20 194.86 73.60 223.13 62.78 250.93 C 74.78 256.04 86.80 262.19 100.05 262.92 C 113.50 263.34 124.13 253.31 137.00 251.55 C 147.90 253.73 157.31 260.38 168.16 262.72 C 183.55 264.27 197.78 257.21 211.35 251.02 C 200.86 223.04 191.01 194.81 179.98 167.03 C 168.31 166.99 156.65 167.00 145.00 166.98 C 144.95 152.98 145.18 138.98 145.06 124.98 C 144.87 118.28 144.99 111.32 142.45 104.99 C 148.14 104.94 153.82 104.89 159.51 104.81 C 157.58 97.71 154.43 90.88 148.50 86.25 C 149.69 84.89 150.88 83.52 152.08 82.15 C 147.50 81.88 142.91 81.60 138.34 81.29 C 145.83 74.39 156.79 77.64 165.95 76.88 C 168.63 89.59 171.75 102.21 174.17 114.97 C 177.22 130.81 182.81 145.98 186.52 161.65 C 187.76 165.52 188.97 169.52 191.01 173.02 C 194.96 176.00 200.02 176.84 204.68 178.20 C 214.28 154.17 220.17 128.69 223.83 103.11 C 226.01 105.35 228.55 107.71 229.00 110.99 C 230.13 124.85 225.94 138.18 223.73 151.69 C 219.87 177.54 212.89 202.78 206.53 228.08 C 212.58 226.19 221.05 226.86 224.09 220.19 C 230.97 204.65 234.91 188.01 238.30 171.40 C 241.59 153.59 246.11 135.63 244.58 117.39 C 243.81 112.78 239.15 110.46 236.12 107.39 C 238.83 100.34 241.71 93.35 244.45 86.30 C 247.53 88.01 252.25 89.64 252.00 93.94 C 252.50 115.35 252.30 136.94 248.41 158.07 C 244.34 190.24 237.03 221.85 229.80 253.42 C 235.94 252.00 242.38 250.51 247.37 246.45 C 252.39 239.25 253.38 230.19 256.03 222.01 C 262.30 200.38 264.64 177.93 267.94 155.74 C 271.55 136.33 269.54 116.49 270.03 96.89 C 266.03 94.03 261.97 91.26 257.89 88.53 C 260.37 78.90 264.14 68.90 261.04 58.93 C 258.71 50.89 248.78 53.27 242.73 52.46 C 244.81 58.49 244.89 64.97 245.77 71.24 C 240.68 68.41 235.02 67.10 229.31 66.25 C 227.49 57.49 227.52 47.52 221.86 40.16 C 217.22 37.34 211.13 39.95 205.95 39.74 C 209.12 48.72 211.92 57.99 210.85 67.67 C 203.97 59.31 196.61 51.13 191.46 41.57 C 190.48 34.85 196.13 30.17 199.21 24.85 C 214.59 28.09 229.40 33.41 244.15 38.76 C 250.91 41.77 258.77 43.33 264.04 48.85 C 269.63 58.39 270.45 69.80 272.34 80.46 C 276.32 103.44 274.82 126.81 275.01 150.00 C 274.92 179.34 271.44 208.53 267.00 237.48 C 276.26 232.18 287.62 225.80 288.74 213.90 C 293.40 182.50 291.98 150.62 291.80 118.99 C 290.20 96.48 288.78 73.84 284.16 51.71 C 282.74 45.83 280.95 38.94 275.45 35.54 C 262.98 28.18 249.40 22.99 235.62 18.71 C 221.52 14.38 207.38 9.76 192.71 7.82 Z" />
<path fill="#000000" opacity="1.00" d=" M 119.35 14.31 C 130.74 4.02 147.52 5.45 161.72 5.02 C 155.75 19.53 145.61 32.97 131.80 40.79 C 117.18 47.36 101.04 49.35 86.13 55.13 C 74.13 59.76 61.94 65.47 53.35 75.35 C 47.78 81.87 46.98 90.86 46.74 99.06 C 58.03 89.07 71.01 81.23 84.98 75.63 C 82.50 87.67 82.22 100.42 76.40 111.52 C 68.20 123.43 56.31 132.35 48.48 144.55 C 44.03 151.58 45.56 160.38 44.93 168.24 C 54.65 157.10 65.64 147.12 77.95 138.90 C 77.25 151.06 76.88 163.29 74.22 175.23 C 72.17 191.38 58.34 201.89 48.87 213.92 C 53.43 224.76 57.24 235.94 60.34 247.29 C 47.33 242.55 34.30 237.11 23.09 228.86 C 12.52 221.65 9.99 208.29 8.03 196.56 C 5.94 185.32 6.02 173.85 6.11 162.47 C 19.41 171.76 31.00 183.38 39.68 197.12 C 39.17 188.34 40.25 179.54 40.02 170.80 C 32.60 154.87 13.47 147.58 7.75 130.46 C 4.17 115.21 6.52 99.26 6.16 83.73 C 18.82 96.88 31.38 110.58 39.51 127.10 C 39.14 118.48 42.90 110.16 42.45 101.62 C 38.01 86.78 21.63 80.37 15.39 66.64 C 13.01 59.54 12.66 50.91 18.02 45.04 C 25.04 37.71 34.34 32.92 43.88 29.71 C 47.35 46.04 45.83 62.88 45.34 79.43 C 55.26 69.06 56.43 54.31 58.98 40.94 C 60.17 32.95 64.48 24.67 72.01 21.06 C 80.94 16.46 90.12 11.67 100.28 10.55 C 98.51 20.69 95.37 30.58 90.68 39.75 C 87.90 44.26 84.23 48.14 80.96 52.30 C 88.05 49.46 95.14 46.10 100.54 40.55 C 107.55 32.35 112.48 22.62 119.35 14.31 Z" />
<path fill="#000000" opacity="1.00" d=" M 192.71 7.82 C 207.38 9.76 221.52 14.38 235.62 18.71 C 249.40 22.99 262.98 28.18 275.45 35.54 C 280.95 38.94 282.74 45.83 284.16 51.71 C 288.78 73.84 290.20 96.48 291.80 118.99 C 291.98 150.62 293.40 182.50 288.74 213.90 C 287.62 225.80 276.26 232.18 267.00 237.48 C 271.44 208.53 274.92 179.34 275.01 150.00 C 274.82 126.81 276.32 103.44 272.34 80.46 C 270.45 69.80 269.63 58.39 264.04 48.85 C 258.77 43.33 250.91 41.77 244.15 38.76 C 229.40 33.41 214.59 28.09 199.21 24.85 C 196.13 30.17 190.48 34.85 191.46 41.57 C 196.61 51.13 203.97 59.31 210.85 67.67 C 211.92 57.99 209.12 48.72 205.95 39.74 C 211.13 39.95 217.22 37.34 221.86 40.16 C 227.52 47.52 227.49 57.49 229.31 66.25 C 235.02 67.10 240.68 68.41 245.77 71.24 C 244.89 64.97 244.81 58.49 242.73 52.46 C 248.78 53.27 258.71 50.89 261.04 58.93 C 264.14 68.90 260.37 78.90 257.89 88.53 C 261.97 91.26 266.03 94.03 270.03 96.89 C 269.54 116.49 271.55 136.33 267.94 155.74 C 264.64 177.93 262.30 200.38 256.03 222.01 C 253.38 230.19 252.39 239.25 247.37 246.45 C 242.38 250.51 235.94 252.00 229.80 253.42 C 237.03 221.85 244.34 190.24 248.41 158.07 C 252.30 136.94 252.50 115.35 252.00 93.94 C 252.25 89.64 247.53 88.01 244.45 86.30 C 241.71 93.35 238.83 100.34 236.12 107.39 C 239.15 110.46 243.81 112.78 244.58 117.39 C 246.11 135.63 241.59 153.59 238.30 171.40 C 234.91 188.01 230.97 204.65 224.09 220.19 C 221.05 226.86 212.58 226.19 206.53 228.08 C 212.89 202.78 219.87 177.54 223.73 151.69 C 225.94 138.18 230.13 124.85 229.00 110.99 C 228.55 107.71 226.01 105.35 223.83 103.11 C 220.17 128.69 214.28 154.17 204.68 178.20 C 200.02 176.84 194.96 176.00 191.01 173.02 C 188.97 169.52 187.76 165.52 186.52 161.65 C 182.81 145.98 177.22 130.81 174.17 114.97 C 171.75 102.21 168.63 89.59 165.95 76.88 C 156.79 77.64 145.83 74.39 138.34 81.29 C 142.91 81.60 147.50 81.88 152.08 82.15 C 150.88 83.52 149.69 84.89 148.50 86.25 C 154.43 90.88 157.58 97.71 159.51 104.81 C 153.82 104.89 148.14 104.94 142.45 104.99 C 144.99 111.32 144.87 118.28 145.06 124.98 C 145.18 138.98 144.95 152.98 145.00 166.98 C 156.65 167.00 168.31 166.99 179.98 167.03 C 191.01 194.81 200.86 223.04 211.35 251.02 C 197.78 257.21 183.55 264.27 168.16 262.72 C 157.31 260.38 147.90 253.73 137.00 251.55 C 124.13 253.31 113.50 263.34 100.05 262.92 C 86.80 262.19 74.78 256.04 62.78 250.93 C 73.60 223.13 83.20 194.86 94.10 167.09 C 105.72 166.99 117.35 166.99 128.98 166.97 C 128.98 146.35 129.22 125.73 128.73 105.11 C 121.71 104.73 114.16 104.42 108.14 108.64 C 105.83 100.96 105.02 92.97 104.56 84.98 C 110.73 79.95 118.57 78.45 126.41 78.46 C 129.29 71.96 135.02 67.33 141.98 65.97 C 154.76 64.03 167.68 65.79 180.51 66.15 C 181.16 75.29 183.82 84.08 185.93 92.94 C 189.32 109.90 193.59 126.69 198.56 143.25 C 201.44 126.12 208.25 109.16 206.42 91.61 C 198.28 75.59 184.33 63.31 175.05 47.96 C 172.43 43.10 172.81 37.04 175.30 32.21 C 179.78 23.23 186.49 15.62 192.71 7.82 M 212.52 68.82 C 216.63 76.24 221.10 83.47 224.78 91.13 C 227.21 84.45 228.20 77.40 228.63 70.32 C 223.35 69.11 217.88 69.22 212.52 68.82 M 119.99 89.68 C 119.99 91.52 119.99 95.20 119.99 97.04 C 128.99 97.02 138.00 96.95 147.00 96.72 C 145.53 93.28 143.59 89.45 139.69 88.34 C 133.11 87.52 126.45 88.38 119.99 89.68 M 113.90 183.08 C 121.59 205.15 129.56 227.11 137.09 249.24 C 144.59 227.12 152.74 205.21 160.37 183.13 C 156.54 183.09 148.89 183.01 145.06 182.97 C 145.01 189.74 144.95 196.52 144.88 203.29 C 139.93 202.20 135.01 200.98 130.08 199.84 C 130.02 194.22 129.98 188.60 129.95 182.99 C 124.60 183.00 119.25 183.03 113.90 183.08 M 172.51 191.76 C 167.47 209.64 161.61 227.28 155.82 244.93 C 167.55 245.01 179.28 245.01 191.01 244.96 C 186.38 234.33 183.62 223.02 179.87 212.07 C 177.41 205.30 174.75 198.61 172.51 191.76 M 101.12 192.90 C 95.64 210.10 89.33 226.99 83.61 244.10 C 95.13 245.20 106.72 244.98 118.28 245.00 C 112.28 227.72 108.13 209.82 101.12 192.90 Z" />
<path fill="#ffffff" opacity="1.00" d=" M 212.52 68.82 C 217.88 69.22 223.35 69.11 228.63 70.32 C 228.20 77.40 227.21 84.45 224.78 91.13 C 221.10 83.47 216.63 76.24 212.52 68.82 Z" />
<path fill="#ffffff" opacity="1.00" d=" M 119.99 89.68 C 126.45 88.38 133.11 87.52 139.69 88.34 C 143.59 89.45 145.53 93.28 147.00 96.72 C 138.00 96.95 128.99 97.02 119.99 97.04 C 119.99 95.20 119.99 91.52 119.99 89.68 Z" />
<path fill="#ffffff" opacity="1.00" d=" M 113.90 183.08 C 119.25 183.03 124.60 183.00 129.95 182.99 C 129.98 188.60 130.02 194.22 130.08 199.84 C 135.01 200.98 139.93 202.20 144.88 203.29 C 144.95 196.52 145.01 189.74 145.06 182.97 C 148.89 183.01 156.54 183.09 160.37 183.13 C 152.74 205.21 144.59 227.12 137.09 249.24 C 129.56 227.11 121.59 205.15 113.90 183.08 Z" />
<path fill="#ffffff" opacity="1.00" d=" M 172.51 191.76 C 174.75 198.61 177.41 205.30 179.87 212.07 C 183.62 223.02 186.38 234.33 191.01 244.96 C 179.28 245.01 167.55 245.01 155.82 244.93 C 161.61 227.28 167.47 209.64 172.51 191.76 Z" />
<path fill="#ffffff" opacity="1.00" d=" M 101.12 192.90 C 108.13 209.82 112.28 227.72 118.28 245.00 C 106.72 244.98 95.13 245.20 83.61 244.10 C 89.33 226.99 95.64 210.10 101.12 192.90 Z" />
</svg>
