<?xml version="1.0" encoding="UTF-8" ?>
<!DOCTYPE svg PUBLIC "-//W3C//DTD SVG 1.1//EN" "http://www.w3.org/Graphics/SVG/1.1/DTD/svg11.dtd">
<svg width="250pt" height="250pt" viewBox="0 0 250 250" version="1.1" xmlns="http://www.w3.org/2000/svg">
<path fill="#1404ab" opacity="1.00" d=" M 0.00 0.00 L 250.00 0.00 L 250.00 250.00 L 0.00 250.00 L 0.00 0.00 M 106.39 22.57 C 99.89 24.00 94.71 30.27 94.81 36.97 C 94.67 44.84 101.94 52.20 109.91 51.58 C 117.39 51.26 123.53 44.23 123.57 36.87 C 123.54 28.21 115.04 20.76 106.39 22.57 M 132.35 28.46 C 129.57 30.35 129.74 34.51 130.69 37.29 C 138.64 45.71 146.88 53.86 154.94 62.19 C 128.15 88.34 101.40 114.53 74.60 140.66 C 72.22 142.63 72.29 146.54 74.01 148.91 C 76.69 151.86 82.00 151.40 84.56 148.51 C 98.97 133.85 113.43 119.23 127.87 104.60 C 137.93 114.22 147.95 123.87 158.00 133.49 C 164.35 125.91 170.73 118.34 177.06 110.74 C 168.04 101.52 159.04 92.29 150.03 83.06 C 155.89 76.90 161.96 70.93 167.69 64.65 C 170.08 61.97 168.53 57.96 166.28 55.72 C 157.39 46.32 148.42 36.99 139.44 27.66 C 137.09 27.73 134.44 27.05 132.35 28.46 M 113.51 59.69 C 109.16 61.67 105.62 66.05 105.80 71.00 C 105.93 78.11 113.20 83.75 120.10 82.97 C 127.44 82.60 134.31 74.77 131.55 67.39 C 129.44 60.10 120.21 56.57 113.51 59.69 M 183.55 117.06 C 180.66 120.36 177.75 123.64 174.85 126.94 C 183.90 135.78 193.02 144.55 202.04 153.43 C 204.77 153.45 208.20 153.63 209.86 150.98 C 210.84 148.18 211.13 144.38 208.72 142.20 C 200.32 133.84 191.95 125.43 183.55 117.06 M 20.42 125.95 C 20.35 157.15 20.35 188.36 20.31 219.56 C 29.79 219.59 39.27 219.51 48.75 219.61 C 52.41 217.16 52.90 210.62 48.63 208.62 C 41.86 208.10 35.06 208.18 28.28 207.87 C 28.29 184.72 28.28 161.57 28.28 138.42 C 52.27 164.25 76.27 190.07 100.24 215.92 C 102.43 215.83 104.89 216.27 106.75 214.80 C 108.53 213.52 108.20 211.07 108.31 209.16 C 81.47 180.86 54.84 152.34 27.99 124.05 C 25.98 121.25 20.13 122.00 20.42 125.95 M 163.69 140.00 C 183.11 160.03 202.58 180.01 221.99 200.05 C 223.95 202.00 225.76 204.84 228.95 204.44 C 232.47 204.79 235.59 201.40 234.87 197.92 C 234.63 194.87 232.05 192.93 230.14 190.86 C 210.79 170.64 191.49 150.39 172.16 130.16 C 169.33 133.43 166.51 136.71 163.69 140.00 Z" />
<path fill="#ffffff" opacity="1.00" d=" M 106.39 22.57 C 115.04 20.76 123.54 28.21 123.57 36.87 C 123.53 44.23 117.39 51.26 109.91 51.58 C 101.94 52.20 94.67 44.84 94.81 36.97 C 94.71 30.27 99.89 24.00 106.39 22.57 M 106.19 26.28 C 102.53 27.55 99.58 30.69 98.62 34.45 C 97.02 40.54 101.77 47.23 107.93 47.99 C 115.30 49.05 122.07 40.69 119.37 33.71 C 117.90 28.20 111.66 24.67 106.19 26.28 Z" />
<path fill="#1404ab" opacity="1.00" d=" M 106.19 26.28 C 111.66 24.67 117.90 28.20 119.37 33.71 C 122.07 40.69 115.30 49.05 107.93 47.99 C 101.77 47.23 97.02 40.54 98.62 34.45 C 99.58 30.69 102.53 27.55 106.19 26.28 Z" />
<path fill="#ffffff" opacity="1.00" d=" M 132.35 28.46 C 134.44 27.05 137.09 27.73 139.44 27.66 C 148.42 36.99 157.39 46.32 166.28 55.72 C 168.53 57.96 170.08 61.97 167.69 64.65 C 161.96 70.93 155.89 76.90 150.03 83.06 C 159.04 92.29 168.04 101.52 177.06 110.74 C 170.73 118.34 164.35 125.91 158.00 133.49 C 147.95 123.87 137.93 114.22 127.87 104.60 C 113.43 119.23 98.97 133.85 84.56 148.51 C 82.00 151.40 76.69 151.86 74.01 148.91 C 72.29 146.54 72.22 142.63 74.60 140.66 C 101.40 114.53 128.15 88.34 154.94 62.19 C 146.88 53.86 138.64 45.71 130.69 37.29 C 129.74 34.51 129.57 30.35 132.35 28.46 Z" />
<path fill="#ffffff" opacity="1.00" d=" M 113.51 59.69 C 120.21 56.57 129.44 60.10 131.55 67.39 C 134.31 74.77 127.44 82.60 120.10 82.97 C 113.20 83.75 105.93 78.11 105.80 71.00 C 105.62 66.05 109.16 61.67 113.51 59.69 Z" />
<path fill="#ffffff" opacity="1.00" d=" M 183.55 117.06 C 191.95 125.43 200.32 133.84 208.72 142.20 C 211.13 144.38 210.84 148.18 209.86 150.98 C 208.20 153.63 204.77 153.45 202.04 153.43 C 193.02 144.55 183.90 135.78 174.85 126.94 C 177.75 123.64 180.66 120.36 183.55 117.06 Z" />
<path fill="#ffffff" opacity="1.00" d=" M 20.42 125.95 C 20.13 122.00 25.98 121.25 27.99 124.05 C 54.84 152.34 81.47 180.86 108.31 209.16 C 108.20 211.07 108.53 213.52 106.75 214.80 C 104.89 216.27 102.43 215.83 100.24 215.92 C 76.27 190.07 52.27 164.25 28.28 138.42 C 28.28 161.57 28.29 184.72 28.28 207.87 C 35.06 208.18 41.86 208.10 48.63 208.62 C 52.90 210.62 52.41 217.16 48.75 219.61 C 39.27 219.51 29.79 219.59 20.31 219.56 C 20.35 188.36 20.35 157.15 20.42 125.95 Z" />
<path fill="#ffffff" opacity="1.00" d=" M 163.69 140.00 C 166.51 136.71 169.33 133.43 172.16 130.16 C 191.49 150.39 210.79 170.64 230.14 190.86 C 232.05 192.93 234.63 194.87 234.87 197.92 C 235.59 201.40 232.47 204.79 228.95 204.44 C 225.76 204.84 223.95 202.00 221.99 200.05 C 202.58 180.01 183.11 160.03 163.69 140.00 Z" />
</svg>
