<?xml version="1.0" encoding="UTF-8" ?>
<!DOCTYPE svg PUBLIC "-//W3C//DTD SVG 1.1//EN" "http://www.w3.org/Graphics/SVG/1.1/DTD/svg11.dtd">
<svg width="250pt" height="250pt" viewBox="0 0 250 250" version="1.1" xmlns="http://www.w3.org/2000/svg">
<path fill="#000000" opacity="1.00" d=" M 21.19 7.17 C 21.87 7.13 23.23 7.06 23.91 7.02 C 91.29 7.03 158.67 7.03 226.04 7.02 C 231.23 6.87 236.73 8.73 239.82 13.10 C 242.28 16.13 242.95 20.14 242.98 23.94 C 242.97 91.31 242.97 158.67 242.98 226.04 C 243.13 231.25 241.26 236.77 236.85 239.85 C 233.83 242.29 229.84 242.95 226.06 242.98 C 158.69 242.97 91.32 242.97 23.95 242.98 C 18.78 243.12 13.33 241.29 10.23 236.97 C 7.74 233.93 7.05 229.90 7.02 226.08 C 7.05 158.37 6.99 90.66 7.05 22.94 C 6.70 15.00 13.12 7.47 21.19 7.17 M 16.39 16.43 C 14.37 18.37 13.97 21.29 13.94 23.95 C 13.94 68.76 13.94 113.58 13.94 158.40 C 19.93 150.29 25.87 142.13 31.87 134.03 C 39.11 137.07 46.22 140.42 53.12 144.16 C 50.55 154.18 47.91 164.18 45.31 174.19 C 49.52 176.92 53.54 179.93 57.36 183.18 C 66.21 177.85 75.02 172.44 83.87 167.10 C 89.42 172.67 94.69 178.51 99.68 184.60 C 93.46 192.91 87.03 201.07 80.96 209.50 C 83.96 213.47 86.34 217.85 88.70 222.22 C 98.92 220.66 109.14 219.08 119.36 217.53 C 121.77 223.64 124.20 229.75 126.09 236.05 C 135.37 236.06 144.66 236.08 153.94 236.04 C 159.76 229.50 165.59 222.97 171.38 216.40 C 169.53 211.17 168.35 205.75 167.77 200.24 C 156.36 195.32 144.92 190.47 133.52 185.54 C 134.26 178.49 135.46 171.50 137.17 164.62 C 149.55 163.89 161.94 163.15 174.32 162.40 C 176.74 157.39 179.75 152.72 183.22 148.38 C 178.59 136.87 173.99 125.34 169.38 113.82 C 174.91 109.39 180.71 105.32 186.74 101.61 C 196.04 109.85 205.31 118.11 214.63 126.32 C 219.87 124.51 225.28 123.27 230.79 122.71 C 232.71 117.21 236.69 112.11 236.09 106.02 C 236.02 78.67 236.08 51.33 236.06 23.99 C 236.03 21.32 235.64 18.38 233.62 16.43 C 231.68 14.39 228.74 13.97 226.06 13.94 C 158.71 13.94 91.35 13.94 23.99 13.94 C 21.30 13.96 18.34 14.37 16.39 16.43 M 176.35 115.72 C 180.81 126.89 185.29 138.06 189.74 149.24 C 185.07 155.01 181.15 161.29 177.84 167.94 C 165.84 168.65 153.85 169.38 141.85 170.09 C 140.87 173.99 140.20 177.96 139.78 181.96 C 150.82 186.72 161.88 191.44 172.92 196.19 C 173.73 203.56 175.35 210.78 177.78 217.79 C 172.42 223.87 167.03 229.92 161.67 235.99 C 182.81 236.02 203.94 235.98 225.08 236.01 C 227.83 236.19 230.44 235.22 232.71 233.74 C 227.80 232.40 222.75 231.32 218.33 228.67 C 207.27 222.71 199.36 211.27 197.67 198.82 C 196.12 188.22 198.90 177.01 205.42 168.49 C 212.53 158.90 224.06 152.78 235.99 152.23 C 236.05 143.23 235.91 134.24 236.07 125.24 C 235.47 128.77 231.76 128.22 229.11 128.75 C 223.62 129.25 218.45 131.23 213.19 132.75 C 204.20 124.77 195.21 116.78 186.22 108.82 C 182.78 110.90 179.47 113.19 176.35 115.72 M 16.95 164.07 C 16.31 165.25 15.32 165.70 13.99 165.42 C 14.02 173.85 13.99 182.29 14.01 190.73 C 34.66 199.64 52.23 215.80 62.41 235.90 C 81.62 236.13 100.83 235.94 120.03 235.99 C 118.79 231.89 117.31 227.87 115.68 223.91 C 105.65 225.44 95.63 226.99 85.60 228.53 C 82.10 221.82 78.21 215.33 73.98 209.07 C 80.08 200.98 86.20 192.91 92.30 184.82 C 89.35 181.18 86.23 177.68 82.90 174.38 C 74.23 179.63 65.59 184.92 56.91 190.15 C 51.11 185.30 45.07 180.77 38.76 176.62 C 41.27 166.79 43.86 156.98 46.40 147.16 C 42.30 144.93 38.06 142.95 33.75 141.16 C 28.14 148.79 22.55 156.43 16.95 164.07 M 203.03 191.97 C 202.00 210.28 217.65 227.49 236.05 227.85 C 236.07 204.56 236.06 181.27 236.05 157.99 C 218.44 158.62 203.09 174.31 203.03 191.97 M 13.95 196.99 C 14.02 207.36 13.77 217.74 14.07 228.10 C 14.12 232.29 17.73 235.89 21.92 235.93 C 33.29 236.23 44.67 235.99 56.05 236.04 C 46.58 219.04 31.63 205.14 13.95 196.99 Z" />
<path fill="#000000" opacity="1.00" d=" M 80.31 21.89 C 86.18 20.42 92.13 19.35 98.15 18.73 C 102.16 28.01 106.14 37.31 110.18 46.57 C 114.49 47.03 118.71 47.99 122.80 49.40 C 130.37 42.68 137.89 35.92 145.46 29.20 C 150.60 32.37 155.58 35.80 160.27 39.62 C 156.53 49.00 152.80 58.39 149.06 67.78 C 151.79 71.15 154.10 74.84 156.04 78.72 C 166.13 79.29 176.22 79.85 186.31 80.45 C 187.77 86.32 188.82 92.27 189.43 98.29 C 180.16 102.35 170.83 106.28 161.56 110.33 C 161.10 114.61 160.19 118.83 158.78 122.90 C 165.50 130.48 172.26 138.01 178.97 145.60 C 175.86 150.78 172.33 155.68 168.59 160.43 C 159.17 156.71 149.78 152.93 140.35 149.22 C 137.00 151.96 133.32 154.26 129.46 156.21 C 128.89 166.28 128.31 176.36 127.71 186.43 C 121.85 187.91 115.90 188.99 109.88 189.58 C 105.86 180.29 101.91 170.97 97.83 161.70 C 93.54 161.26 89.33 160.33 85.26 158.94 C 77.69 165.65 70.15 172.39 62.58 179.11 C 57.42 175.97 52.45 172.53 47.75 168.74 C 51.44 159.31 55.26 149.92 58.96 140.49 C 56.28 137.17 53.88 133.61 52.12 129.70 C 42.00 128.95 31.86 128.51 21.73 127.87 C 20.28 122.00 19.17 116.05 18.57 110.03 C 27.83 106.00 37.12 102.04 46.39 98.03 C 46.89 93.72 47.83 89.48 49.22 85.37 C 42.51 77.82 35.77 70.29 29.07 62.72 C 32.18 57.55 35.65 52.61 39.44 47.91 C 48.86 51.58 58.22 55.42 67.64 59.12 C 70.99 56.37 74.66 54.05 78.55 52.14 C 79.16 42.06 79.72 31.97 80.31 21.89 M 85.78 26.52 C 85.21 36.24 84.67 45.97 84.08 55.69 C 78.55 58.42 73.33 61.71 68.55 65.63 C 59.47 62.07 50.42 58.42 41.35 54.84 C 39.50 57.17 37.80 59.61 36.23 62.14 C 42.71 69.42 49.18 76.70 55.65 83.97 C 53.63 89.82 52.27 95.86 51.65 102.02 C 42.71 105.93 33.73 109.73 24.78 113.62 C 25.18 116.56 25.68 119.48 26.36 122.37 C 36.09 122.95 45.83 123.47 55.56 124.08 C 58.20 129.69 61.63 134.83 65.47 139.67 C 61.86 148.72 58.28 157.78 54.68 166.82 C 57.02 168.66 59.46 170.37 61.99 171.94 C 69.27 165.47 76.56 159.00 83.83 152.50 C 89.67 154.54 95.71 155.89 101.86 156.52 C 105.78 165.45 109.57 174.44 113.47 183.38 C 116.42 183.00 119.35 182.47 122.25 181.79 C 122.76 172.11 123.42 162.44 123.84 152.76 C 129.36 149.85 134.73 146.67 139.56 142.69 C 148.59 146.31 157.64 149.88 166.69 153.48 C 168.52 151.13 170.23 148.70 171.79 146.17 C 165.32 138.88 158.81 131.63 152.36 124.32 C 154.36 118.47 155.78 112.45 156.37 106.29 C 165.32 102.44 174.27 98.59 183.21 94.74 C 182.85 91.78 182.30 88.85 181.65 85.94 C 171.94 85.37 162.23 84.82 152.52 84.26 C 149.76 78.71 146.47 73.46 142.53 68.67 C 146.12 59.61 149.75 50.56 153.35 41.51 C 150.99 39.67 148.54 37.96 146.01 36.36 C 138.75 42.85 131.48 49.33 124.22 55.82 C 118.37 53.78 112.32 52.46 106.16 51.81 C 102.27 42.87 98.42 33.91 94.56 24.95 C 91.61 25.32 88.68 25.83 85.78 26.52 Z" />
<path fill="#6a75d7" opacity="1.00" d=" M 85.78 26.52 C 88.68 25.83 91.61 25.32 94.56 24.95 C 98.42 33.91 102.27 42.87 106.16 51.81 C 112.32 52.46 118.37 53.78 124.22 55.82 C 131.48 49.33 138.75 42.85 146.01 36.36 C 148.54 37.96 150.99 39.67 153.35 41.51 C 149.75 50.56 146.12 59.61 142.53 68.67 C 146.47 73.46 149.76 78.71 152.52 84.26 C 162.23 84.82 171.94 85.37 181.65 85.94 C 182.30 88.85 182.85 91.78 183.21 94.74 C 174.27 98.59 165.32 102.44 156.37 106.29 C 155.78 112.45 154.36 118.47 152.36 124.32 C 158.81 131.63 165.32 138.88 171.79 146.17 C 170.23 148.70 168.52 151.13 166.69 153.48 C 157.64 149.88 148.59 146.31 139.56 142.69 C 134.73 146.67 129.36 149.85 123.84 152.76 C 123.42 162.44 122.76 172.11 122.25 181.79 C 119.35 182.47 116.42 183.00 113.47 183.38 C 109.57 174.44 105.78 165.45 101.86 156.52 C 95.71 155.89 89.67 154.54 83.83 152.50 C 76.56 159.00 69.27 165.47 61.99 171.94 C 59.46 170.37 57.02 168.66 54.68 166.82 C 58.28 157.78 61.86 148.72 65.47 139.67 C 61.63 134.83 58.20 129.69 55.56 124.08 C 45.83 123.47 36.09 122.95 26.36 122.37 C 25.68 119.48 25.18 116.56 24.78 113.62 C 33.73 109.73 42.71 105.93 51.65 102.02 C 52.27 95.86 53.63 89.82 55.65 83.97 C 49.18 76.70 42.71 69.42 36.23 62.14 C 37.80 59.61 39.50 57.17 41.35 54.84 C 50.42 58.42 59.47 62.07 68.55 65.63 C 73.33 61.71 78.55 58.42 84.08 55.69 C 84.67 45.97 85.21 36.24 85.78 26.52 M 97.23 71.21 C 86.06 73.39 76.37 81.70 72.48 92.39 C 68.24 103.49 70.49 116.77 78.24 125.79 C 87.93 137.81 106.26 141.36 119.76 133.88 C 133.86 126.78 141.20 108.95 136.08 93.98 C 131.39 77.95 113.53 67.44 97.23 71.21 Z" />
<path fill="#000000" opacity="1.00" d=" M 97.23 71.21 C 113.53 67.44 131.39 77.95 136.08 93.98 C 141.20 108.95 133.86 126.78 119.76 133.88 C 106.26 141.36 87.93 137.81 78.24 125.79 C 70.49 116.77 68.24 103.49 72.48 92.39 C 76.37 81.70 86.06 73.39 97.23 71.21 M 99.47 76.63 C 91.91 77.85 84.96 82.31 80.77 88.73 C 72.85 100.11 75.36 117.14 86.28 125.70 C 97.04 134.98 114.81 133.86 124.31 123.29 C 133.89 113.60 134.42 96.81 125.58 86.47 C 119.45 78.82 109.11 74.95 99.47 76.63 Z" />
<path fill="#9cca15" opacity="1.00" d=" M 176.35 115.72 C 179.47 113.19 182.78 110.90 186.22 108.82 C 195.21 116.78 204.20 124.77 213.19 132.75 C 218.45 131.23 223.62 129.25 229.11 128.75 C 231.76 128.22 235.47 128.77 236.07 125.24 C 235.91 134.24 236.05 143.23 235.99 152.23 C 224.06 152.78 212.53 158.90 205.42 168.49 C 198.90 177.01 196.12 188.22 197.67 198.82 C 199.36 211.27 207.27 222.71 218.33 228.67 C 222.75 231.32 227.80 232.40 232.71 233.74 C 230.44 235.22 227.83 236.19 225.08 236.01 C 203.94 235.98 182.81 236.02 161.67 235.99 C 167.03 229.92 172.42 223.87 177.78 217.79 C 175.35 210.78 173.73 203.56 172.92 196.19 C 161.88 191.44 150.82 186.72 139.78 181.96 C 140.20 177.96 140.87 173.99 141.85 170.09 C 153.85 169.38 165.84 168.65 177.84 167.94 C 181.15 161.29 185.07 155.01 189.74 149.24 C 185.29 138.06 180.81 126.89 176.35 115.72 Z" />
<path fill="#9cca15" opacity="1.00" d=" M 16.95 164.07 C 22.55 156.43 28.14 148.79 33.75 141.16 C 38.06 142.95 42.30 144.93 46.40 147.16 C 43.86 156.98 41.27 166.79 38.76 176.62 C 45.07 180.77 51.11 185.30 56.91 190.15 C 65.59 184.92 74.23 179.63 82.90 174.38 C 86.23 177.68 89.35 181.18 92.30 184.82 C 86.20 192.91 80.08 200.98 73.98 209.07 C 78.21 215.33 82.10 221.82 85.60 228.53 C 95.63 226.99 105.65 225.44 115.68 223.91 C 117.31 227.87 118.79 231.89 120.03 235.99 C 100.83 235.94 81.62 236.13 62.41 235.90 C 52.23 215.80 34.66 199.64 14.01 190.73 C 13.99 182.29 14.02 173.85 13.99 165.42 C 15.32 165.70 16.31 165.25 16.95 164.07 Z" />
</svg>
