<?xml version="1.0" encoding="UTF-8" ?>
<!DOCTYPE svg PUBLIC "-//W3C//DTD SVG 1.1//EN" "http://www.w3.org/Graphics/SVG/1.1/DTD/svg11.dtd">
<svg width="400pt" height="400pt" viewBox="0 0 400 400" version="1.1" xmlns="http://www.w3.org/2000/svg">
<path fill="#ffb13b" opacity="1.00" d=" M 0.00 0.00 L 192.74 0.00 C 181.01 2.11 169.28 5.54 159.42 12.47 C 148.85 19.53 140.33 29.42 134.49 40.68 C 119.91 36.13 104.00 35.57 89.38 40.26 C 74.02 45.00 60.24 54.90 51.05 68.12 C 39.59 84.03 35.24 104.73 38.90 123.95 C 39.56 127.25 40.36 130.52 41.10 133.80 C 23.71 143.08 9.69 158.90 3.90 177.88 C 1.40 185.26 1.21 193.10 0.00 200.74 L 0.00 0.00 Z" />
<path fill="#ff9900" opacity="1.00" d=" M 192.74 0.00 L 400.00 0.00 L 400.00 206.98 C 398.19 213.83 397.16 220.92 394.43 227.50 C 390.86 236.37 385.23 244.24 378.78 251.24 C 378.81 237.16 378.74 223.09 378.82 209.01 C 379.05 200.75 378.95 192.31 376.46 184.35 C 372.19 171.00 362.54 159.36 349.93 153.14 C 342.81 149.20 334.66 147.63 326.61 147.36 C 334.64 139.19 339.90 128.42 341.24 117.03 C 343.10 102.48 338.68 87.09 328.90 76.08 C 320.17 65.91 307.32 59.58 294.00 58.54 C 278.91 57.15 263.40 62.71 252.64 73.39 C 252.55 58.34 245.61 43.54 234.12 33.84 C 224.24 25.34 211.13 20.58 198.06 21.29 C 185.82 21.66 174.00 26.94 165.00 35.15 C 154.42 44.88 148.04 58.98 147.97 73.38 C 137.30 62.81 121.98 57.27 107.02 58.51 C 95.10 59.40 83.45 64.37 74.88 72.77 C 65.84 81.24 60.38 93.14 59.20 105.42 C 57.65 120.69 63.17 136.50 74.03 147.38 C 58.11 147.42 42.48 155.23 32.83 167.86 C 25.47 177.24 21.57 189.11 21.78 201.02 C 21.98 260.13 21.55 319.22 21.67 378.33 C 98.42 378.34 175.17 378.36 251.91 378.33 C 243.51 385.58 234.23 392.01 223.60 395.51 C 219.61 396.81 215.47 397.51 211.45 398.69 C 213.27 399.00 215.11 399.29 216.96 399.38 C 275.65 399.32 334.34 399.38 393.03 399.36 C 395.35 399.31 397.67 399.20 400.00 399.09 L 400.00 400.00 L 0.00 400.00 L 0.00 200.74 C 1.21 193.10 1.40 185.26 3.90 177.88 C 9.69 158.90 23.71 143.08 41.10 133.80 C 40.36 130.52 39.56 127.25 38.90 123.95 C 35.24 104.73 39.59 84.03 51.05 68.12 C 60.24 54.90 74.02 45.00 89.38 40.26 C 104.00 35.57 119.91 36.13 134.49 40.68 C 140.33 29.42 148.85 19.53 159.42 12.47 C 169.28 5.54 181.01 2.11 192.74 0.00 Z" />
<path fill="#000000" opacity="1.00" d=" M 165.00 35.15 C 174.00 26.94 185.82 21.66 198.06 21.29 C 211.13 20.58 224.24 25.34 234.12 33.84 C 245.61 43.54 252.55 58.34 252.64 73.39 C 263.40 62.71 278.91 57.15 294.00 58.54 C 307.32 59.58 320.17 65.91 328.90 76.08 C 338.68 87.09 343.10 102.48 341.24 117.03 C 339.90 128.42 334.64 139.19 326.61 147.36 C 334.66 147.63 342.81 149.20 349.93 153.14 C 362.54 159.36 372.19 171.00 376.46 184.35 C 378.95 192.31 379.05 200.75 378.82 209.01 C 378.74 223.09 378.81 237.16 378.78 251.24 C 378.75 293.60 379.09 335.95 378.95 378.31 C 336.60 378.38 294.26 378.33 251.91 378.33 C 175.17 378.36 98.42 378.34 21.67 378.33 C 21.55 319.22 21.98 260.13 21.78 201.02 C 21.57 189.11 25.47 177.24 32.83 167.86 C 42.48 155.23 58.11 147.42 74.03 147.38 C 63.17 136.50 57.65 120.69 59.20 105.42 C 60.38 93.14 65.84 81.24 74.88 72.77 C 83.45 64.37 95.10 59.40 107.02 58.51 C 121.98 57.27 137.30 62.81 147.97 73.38 C 148.04 58.98 154.42 44.88 165.00 35.15 M 184.22 50.33 C 175.98 55.91 171.17 66.13 172.22 76.04 C 172.64 82.65 175.90 88.73 180.32 93.56 C 180.27 112.78 180.36 132.01 180.28 151.24 C 166.89 138.11 153.74 124.75 140.44 111.54 C 139.00 110.49 139.29 108.59 139.01 107.05 C 137.96 96.44 130.11 86.98 120.02 83.69 C 112.48 81.13 103.84 81.96 96.97 86.01 C 89.42 90.34 84.08 98.32 83.06 106.97 C 81.94 115.32 84.93 124.05 90.80 130.07 C 96.02 135.61 103.52 138.55 111.07 138.77 C 124.72 152.40 138.36 166.05 152.00 179.69 C 132.79 179.63 113.58 179.79 94.38 179.61 C 91.68 177.96 89.43 175.60 86.48 174.33 C 76.74 169.50 64.25 170.95 55.99 178.06 C 49.48 183.37 45.91 191.67 45.78 200.00 C 148.80 200.00 251.83 200.01 354.85 199.99 C 354.54 195.37 353.76 190.67 351.49 186.57 C 347.15 178.13 338.29 172.23 328.81 171.60 C 320.63 170.82 312.39 174.02 306.51 179.67 C 287.22 179.70 267.93 179.68 248.64 179.69 C 262.29 166.03 275.91 152.34 289.62 138.74 C 297.64 138.54 305.61 135.14 310.84 128.97 C 317.26 121.74 319.46 111.07 316.44 101.89 C 313.94 93.89 307.65 87.19 299.83 84.17 C 292.37 81.19 283.62 81.67 276.52 85.42 C 268.68 89.47 262.86 97.39 261.72 106.19 C 261.33 108.12 261.71 110.50 259.89 111.81 C 246.69 124.98 233.52 138.19 220.31 151.36 C 220.32 132.07 220.30 112.78 220.32 93.49 C 224.86 88.68 227.99 82.42 228.40 75.76 C 229.47 64.77 223.31 53.57 213.49 48.55 C 204.41 43.66 192.62 44.32 184.22 50.33 M 154.29 212.43 C 165.16 264.99 176.05 317.55 186.94 370.11 C 195.64 370.11 204.35 370.10 213.05 370.11 C 223.95 317.56 234.81 264.99 245.68 212.43 C 237.08 212.44 228.48 212.44 219.89 212.44 C 213.44 243.43 207.10 274.45 200.62 305.44 C 200.30 305.27 199.66 304.91 199.34 304.73 C 192.65 274.04 186.57 243.19 180.08 212.44 C 171.48 212.44 162.88 212.45 154.29 212.43 M 79.04 221.96 C 69.57 229.13 63.02 240.14 61.48 251.93 C 60.03 262.07 62.06 272.70 67.33 281.49 C 74.16 293.26 86.51 301.65 100.00 303.54 C 105.47 304.30 111.39 303.82 116.34 306.71 C 122.24 309.86 126.30 316.13 126.70 322.82 C 127.33 330.35 123.21 337.99 116.60 341.64 C 109.72 345.67 100.44 344.93 94.29 339.87 C 89.70 336.32 87.06 330.71 86.70 324.98 C 78.13 324.98 69.55 324.98 60.98 324.98 C 61.12 343.51 73.60 361.18 91.14 367.23 C 105.93 372.74 123.58 369.84 135.66 359.64 C 144.46 352.64 150.34 342.14 151.97 331.04 C 153.84 318.79 150.54 305.78 142.77 296.09 C 135.82 287.02 125.27 280.86 114.01 279.08 C 108.41 278.26 102.38 278.79 97.29 275.92 C 91.12 272.68 86.92 266.00 86.78 259.02 C 86.42 251.70 90.55 244.43 96.96 240.90 C 104.06 236.74 113.72 237.72 119.85 243.22 C 124.08 246.77 126.39 252.15 126.83 257.59 C 135.40 257.59 143.96 257.59 152.52 257.59 C 152.23 250.42 150.66 243.22 147.13 236.92 C 140.52 224.07 127.35 214.89 113.03 213.06 C 101.12 211.28 88.57 214.63 79.04 221.96 M 272.55 217.56 C 261.39 223.13 252.70 233.52 249.33 245.54 C 247.60 250.82 247.46 256.47 247.33 261.98 C 247.39 282.65 247.27 303.33 247.39 324.01 C 247.60 334.02 250.66 344.08 256.90 352.00 C 264.67 362.35 277.10 369.08 290.03 369.84 C 302.07 370.82 314.40 366.62 323.42 358.59 C 333.09 350.26 338.76 337.69 339.01 324.96 C 339.22 309.43 339.05 293.90 339.10 278.37 C 324.06 278.38 309.02 278.38 293.98 278.38 C 293.97 286.98 293.97 295.59 293.98 304.20 C 300.42 304.22 306.86 304.16 313.31 304.24 C 313.20 311.15 313.41 318.07 313.21 324.98 C 313.02 331.87 308.95 338.47 302.89 341.75 C 296.28 345.50 287.50 344.96 281.43 340.37 C 276.23 336.68 273.22 330.37 273.20 324.04 C 273.15 302.33 273.17 280.63 273.20 258.93 C 273.13 252.72 275.86 246.47 280.82 242.66 C 286.97 237.69 296.14 236.92 302.99 240.90 C 309.07 244.17 312.87 250.78 313.30 257.60 C 321.87 257.58 330.45 257.60 339.02 257.59 C 338.75 241.64 329.68 226.12 315.61 218.47 C 302.60 210.99 285.86 210.65 272.55 217.56 M 38.11 237.05 C 37.97 250.91 38.00 264.78 38.11 278.65 C 46.74 278.63 55.38 278.64 64.01 278.82 C 58.88 267.17 57.95 253.57 62.59 241.61 C 66.42 230.95 74.57 222.44 84.09 216.56 C 75.41 216.57 66.71 216.34 58.03 216.66 C 47.43 216.99 38.22 226.46 38.11 237.05 M 129.76 216.62 C 133.78 219.76 138.18 222.50 141.54 226.40 C 149.82 235.16 153.87 247.14 154.14 259.05 C 144.59 259.04 135.04 259.17 125.49 258.98 C 125.41 250.84 120.16 242.91 112.19 240.60 C 102.73 237.39 91.60 243.47 88.99 253.06 C 86.47 261.04 90.26 270.39 97.59 274.41 C 102.86 277.53 109.20 276.72 115.01 277.77 C 120.17 278.49 124.84 281.20 130.07 281.58 C 142.63 282.63 155.22 283.37 167.75 284.73 C 163.10 262.03 158.27 239.36 153.71 216.64 C 145.73 216.43 137.74 216.47 129.76 216.62 M 182.44 216.53 C 187.35 240.30 192.26 264.06 197.22 287.82 C 199.05 287.98 200.89 288.14 202.73 288.31 C 207.59 264.37 212.64 240.47 217.52 216.53 C 205.83 216.51 194.14 216.52 182.44 216.53 M 246.27 216.63 C 241.22 241.70 235.90 266.72 230.79 291.78 C 235.82 292.38 240.86 292.95 245.88 293.67 C 245.84 284.12 245.90 274.58 245.85 265.03 C 245.68 255.51 246.51 245.64 251.05 237.09 C 255.17 228.44 262.44 221.91 270.24 216.62 C 262.25 216.46 254.26 216.44 246.27 216.63 M 315.90 216.57 C 320.30 219.62 324.78 222.68 328.32 226.76 C 336.37 235.47 340.48 247.29 340.56 259.08 C 331.05 259.06 321.54 259.08 312.03 259.07 C 311.83 250.56 306.19 242.23 297.64 240.34 C 287.01 237.33 275.19 245.94 274.78 256.97 C 274.56 270.47 274.61 283.98 274.77 297.48 C 280.69 298.13 286.59 298.99 292.50 299.71 C 292.49 292.15 292.52 284.59 292.46 277.04 C 308.51 276.79 324.57 276.84 340.63 277.01 C 340.59 286.68 340.57 296.36 340.63 306.03 C 348.90 307.15 357.17 308.24 365.45 309.28 C 365.49 285.52 365.51 261.76 365.44 238.00 C 365.72 227.28 356.78 217.30 346.02 216.71 C 335.99 216.29 325.94 216.59 315.90 216.57 Z" />
<path fill="#ffffff" opacity="1.00" d=" M 184.22 50.33 C 192.62 44.32 204.41 43.66 213.49 48.55 C 223.31 53.57 229.47 64.77 228.40 75.76 C 227.99 82.42 224.86 88.68 220.32 93.49 C 220.30 112.78 220.32 132.07 220.31 151.36 C 233.52 138.19 246.69 124.98 259.89 111.81 C 261.71 110.50 261.33 108.12 261.72 106.19 C 262.86 97.39 268.68 89.47 276.52 85.42 C 283.62 81.67 292.37 81.19 299.83 84.17 C 307.65 87.19 313.94 93.89 316.44 101.89 C 319.46 111.07 317.26 121.74 310.84 128.97 C 305.61 135.14 297.64 138.54 289.62 138.74 C 275.91 152.34 262.29 166.03 248.64 179.69 C 267.93 179.68 287.22 179.70 306.51 179.67 C 312.39 174.02 320.63 170.82 328.81 171.60 C 338.29 172.23 347.15 178.13 351.49 186.57 C 353.76 190.67 354.54 195.37 354.85 199.99 C 251.83 200.01 148.80 200.00 45.78 200.00 C 45.91 191.67 49.48 183.37 55.99 178.06 C 64.25 170.95 76.74 169.50 86.48 174.33 C 89.43 175.60 91.68 177.96 94.38 179.61 C 113.58 179.79 132.79 179.63 152.00 179.69 C 138.36 166.05 124.72 152.40 111.07 138.77 C 103.52 138.55 96.02 135.61 90.80 130.07 C 84.93 124.05 81.94 115.32 83.06 106.97 C 84.08 98.32 89.42 90.34 96.97 86.01 C 103.84 81.96 112.48 81.13 120.02 83.69 C 130.11 86.98 137.96 96.44 139.01 107.05 C 139.29 108.59 139.00 110.49 140.44 111.54 C 153.74 124.75 166.89 138.11 180.28 151.24 C 180.36 132.01 180.27 112.78 180.32 93.56 C 175.90 88.73 172.64 82.65 172.22 76.04 C 171.17 66.13 175.98 55.91 184.22 50.33 Z" />
<path fill="#de8500" opacity="1.00" d=" M 394.43 227.50 C 397.16 220.92 398.19 213.83 400.00 206.98 L 400.00 399.09 C 397.67 399.20 395.35 399.31 393.03 399.36 C 334.34 399.38 275.65 399.32 216.96 399.38 C 215.11 399.29 213.27 399.00 211.45 398.69 C 215.47 397.51 219.61 396.81 223.60 395.51 C 234.23 392.01 243.51 385.58 251.91 378.33 C 294.26 378.33 336.60 378.38 378.95 378.31 C 379.09 335.95 378.75 293.60 378.78 251.24 C 385.23 244.24 390.86 236.37 394.43 227.50 Z" />
<path fill="#ffffff" opacity="1.00" d=" M 154.29 212.43 C 162.88 212.45 171.48 212.44 180.08 212.44 C 186.57 243.19 192.65 274.04 199.34 304.73 C 199.66 304.91 200.30 305.27 200.62 305.44 C 207.10 274.45 213.44 243.43 219.89 212.44 C 228.48 212.44 237.08 212.44 245.68 212.43 C 234.81 264.99 223.95 317.56 213.05 370.11 C 204.35 370.10 195.64 370.11 186.94 370.11 C 176.05 317.55 165.16 264.99 154.29 212.43 Z" />
<path fill="#ffffff" opacity="1.00" d=" M 79.04 221.96 C 88.57 214.63 101.12 211.28 113.03 213.06 C 127.35 214.89 140.52 224.07 147.13 236.92 C 150.66 243.22 152.23 250.42 152.52 257.59 C 143.96 257.59 135.40 257.59 126.83 257.59 C 126.39 252.15 124.08 246.77 119.85 243.22 C 113.72 237.72 104.06 236.74 96.96 240.90 C 90.55 244.43 86.42 251.70 86.78 259.02 C 86.92 266.00 91.12 272.68 97.29 275.92 C 102.38 278.79 108.41 278.26 114.01 279.08 C 125.27 280.86 135.82 287.02 142.77 296.09 C 150.54 305.78 153.84 318.79 151.97 331.04 C 150.34 342.14 144.46 352.64 135.66 359.64 C 123.58 369.84 105.93 372.74 91.14 367.23 C 73.60 361.18 61.12 343.51 60.98 324.98 C 69.55 324.98 78.13 324.98 86.70 324.98 C 87.06 330.71 89.70 336.32 94.29 339.87 C 100.44 344.93 109.72 345.67 116.60 341.64 C 123.21 337.99 127.33 330.35 126.70 322.82 C 126.30 316.13 122.24 309.86 116.34 306.71 C 111.39 303.82 105.47 304.30 100.00 303.54 C 86.51 301.65 74.16 293.26 67.33 281.49 C 62.06 272.70 60.03 262.07 61.48 251.93 C 63.02 240.14 69.57 229.13 79.04 221.96 Z" />
<path fill="#ffffff" opacity="1.00" d=" M 272.55 217.56 C 285.86 210.65 302.60 210.99 315.61 218.47 C 329.68 226.12 338.75 241.64 339.02 257.59 C 330.45 257.60 321.87 257.58 313.30 257.60 C 312.87 250.78 309.07 244.17 302.99 240.90 C 296.14 236.92 286.97 237.69 280.82 242.66 C 275.86 246.47 273.13 252.72 273.20 258.93 C 273.17 280.63 273.15 302.33 273.20 324.04 C 273.22 330.37 276.23 336.68 281.43 340.37 C 287.50 344.96 296.28 345.50 302.89 341.75 C 308.95 338.47 313.02 331.87 313.21 324.98 C 313.41 318.07 313.20 311.15 313.31 304.24 C 306.86 304.16 300.42 304.22 293.98 304.20 C 293.97 295.59 293.97 286.98 293.98 278.38 C 309.02 278.38 324.06 278.38 339.10 278.37 C 339.05 293.90 339.22 309.43 339.01 324.96 C 338.76 337.69 333.09 350.26 323.42 358.59 C 314.40 366.62 302.07 370.82 290.03 369.84 C 277.10 369.08 264.67 362.35 256.90 352.00 C 250.66 344.08 247.60 334.02 247.39 324.01 C 247.27 303.33 247.39 282.65 247.33 261.98 C 247.46 256.47 247.60 250.82 249.33 245.54 C 252.70 233.52 261.39 223.13 272.55 217.56 Z" />
<path fill="#3f3f3f" opacity="1.00" d=" M 38.11 237.05 C 38.22 226.46 47.43 216.99 58.03 216.66 C 66.71 216.34 75.41 216.57 84.09 216.56 C 74.57 222.44 66.42 230.95 62.59 241.61 C 57.95 253.57 58.88 267.17 64.01 278.82 C 55.38 278.64 46.74 278.63 38.11 278.65 C 38.00 264.78 37.97 250.91 38.11 237.05 Z" />
<path fill="#3f3f3f" opacity="1.00" d=" M 129.76 216.62 C 137.74 216.47 145.73 216.43 153.71 216.64 C 158.27 239.36 163.10 262.03 167.75 284.73 C 155.22 283.37 142.63 282.63 130.07 281.58 C 124.84 281.20 120.17 278.49 115.01 277.77 C 109.20 276.72 102.86 277.53 97.59 274.41 C 90.26 270.39 86.47 261.04 88.99 253.06 C 91.60 243.47 102.73 237.39 112.19 240.60 C 120.16 242.91 125.41 250.84 125.49 258.98 C 135.04 259.17 144.59 259.04 154.14 259.05 C 153.87 247.14 149.82 235.16 141.54 226.40 C 138.18 222.50 133.78 219.76 129.76 216.62 Z" />
<path fill="#3f3f3f" opacity="1.00" d=" M 182.44 216.53 C 194.14 216.52 205.83 216.51 217.52 216.53 C 212.64 240.47 207.59 264.37 202.73 288.31 C 200.89 288.14 199.05 287.98 197.22 287.82 C 192.26 264.06 187.35 240.30 182.44 216.53 Z" />
<path fill="#3f3f3f" opacity="1.00" d=" M 246.27 216.63 C 254.26 216.44 262.25 216.46 270.24 216.62 C 262.44 221.91 255.17 228.44 251.05 237.09 C 246.51 245.64 245.68 255.51 245.85 265.03 C 245.90 274.58 245.84 284.12 245.88 293.67 C 240.86 292.95 235.82 292.38 230.79 291.78 C 235.90 266.72 241.22 241.70 246.27 216.63 Z" />
<path fill="#3f3f3f" opacity="1.00" d=" M 315.90 216.57 C 325.94 216.59 335.99 216.29 346.02 216.71 C 356.78 217.30 365.72 227.28 365.44 238.00 C 365.51 261.76 365.49 285.52 365.45 309.28 C 357.17 308.24 348.90 307.15 340.63 306.03 C 340.57 296.36 340.59 286.68 340.63 277.01 C 324.57 276.84 308.51 276.79 292.46 277.04 C 292.52 284.59 292.49 292.15 292.50 299.71 C 286.59 298.99 280.69 298.13 274.77 297.48 C 274.61 283.98 274.56 270.47 274.78 256.97 C 275.19 245.94 287.01 237.33 297.64 240.34 C 306.19 242.23 311.83 250.56 312.03 259.07 C 321.54 259.08 331.05 259.06 340.56 259.08 C 340.48 247.29 336.37 235.47 328.32 226.76 C 324.78 222.68 320.30 219.62 315.90 216.57 Z" />
</svg>
